<!DOCTYPE svg PUBLIC "-//W3C//DTD SVG 1.1//EN" "http://www.w3.org/Graphics/SVG/1.1/DTD/svg11.dtd">
<!-- Uploaded to: SVG Repo, www.svgrepo.com, Transformed by: SVG Repo Mixer Tools -->
<svg fill="#2e3436" width="800px" height="800px" viewBox="0 0 24 24" xmlns="http://www.w3.org/2000/svg" stroke="#2e3436">
<g id="SVGRepo_bgCarrier" stroke-width="0"/>
<g id="SVGRepo_tracerCarrier" stroke-linecap="round" stroke-linejoin="round"/>
<g id="SVGRepo_iconCarrier">
<path d="M3.012,10.981,3,11H5v9a1,1,0,0,0,1,1H18a1,1,0,0,0,1-1V11h2a1,1,0,0,0,.555-1.832l-9-6a1,1,0,0,0-1.11,0l-9,6a1,1,0,0,0-.277,1.387A.98.98,0,0,0,3.012,10.981ZM10,14a1,1,0,0,1,1-1h2a1,1,0,0,1,1,1v5H10Z"/>
</g>
</svg>