<svg width="2452" height="538" viewBox="0 0 2452 538" fill="none" xmlns="http://www.w3.org/2000/svg">
<g filter="url(#filter0_d_8_7)">
<path d="M44 255.621V54.6705C141.15 32.5553 269.955 21.9835 253.582 176.332C240.572 298.965 91.1941 268.058 44 255.621Z" fill="black" stroke="#FEFEFE" stroke-width="76"/>
<path d="M44 454.441V253.491C141.15 231.376 269.955 220.804 253.582 375.152C240.572 497.785 91.1941 466.878 44 454.441Z" fill="black" stroke="#FEFEFE" stroke-width="76"/>
</g>
<path d="M350.375 357V211.545H413.159C423.955 211.545 433.401 213.51 441.497 217.44C449.594 221.37 455.891 227.028 460.389 234.415C464.887 241.801 467.136 250.655 467.136 260.977C467.136 271.394 464.816 280.177 460.176 287.327C455.583 294.476 449.12 299.874 440.787 303.52C432.501 307.166 422.818 308.989 411.739 308.989H374.239V278.307H403.784C408.424 278.307 412.378 277.739 415.645 276.602C418.959 275.419 421.492 273.548 423.244 270.991C425.044 268.435 425.943 265.097 425.943 260.977C425.943 256.811 425.044 253.425 423.244 250.821C421.492 248.17 418.959 246.228 415.645 244.997C412.378 243.719 408.424 243.08 403.784 243.08H389.864V357H350.375ZM435.602 290.239L471.966 357H429.068L393.557 290.239H435.602ZM523.457 211.545V357H483.969V211.545H523.457ZM602.115 211.545H641.036V311.261C640.988 320.731 638.597 329.064 633.862 336.261C629.175 343.411 622.688 348.998 614.402 353.023C606.163 357 596.67 358.989 585.922 358.989C576.594 358.989 568.071 357.379 560.354 354.159C552.636 350.892 546.481 345.778 541.888 338.818C537.295 331.811 535.022 322.72 535.07 311.545H574.558C574.7 315.191 575.316 318.269 576.405 320.778C577.541 323.288 579.104 325.182 581.092 326.46C583.128 327.691 585.59 328.307 588.479 328.307C591.414 328.307 593.876 327.668 595.865 326.389C597.901 325.111 599.44 323.217 600.482 320.707C601.523 318.151 602.068 315.002 602.115 311.261V211.545ZM659.75 357V211.545H764.58V243.364H699.239V268.364H759.182V300.182H699.239V325.182H764.295V357H659.75ZM862.573 257C862.194 252.265 860.419 248.572 857.246 245.92C854.121 243.269 849.363 241.943 842.971 241.943C838.899 241.943 835.561 242.44 832.957 243.435C830.4 244.382 828.506 245.684 827.275 247.341C826.044 248.998 825.405 250.892 825.357 253.023C825.263 254.775 825.57 256.361 826.281 257.781C827.038 259.154 828.222 260.409 829.832 261.545C831.442 262.634 833.501 263.629 836.011 264.528C838.52 265.428 841.503 266.233 844.96 266.943L856.891 269.5C864.941 271.205 871.83 273.454 877.559 276.247C883.288 279.041 887.976 282.331 891.621 286.119C895.267 289.86 897.942 294.074 899.647 298.761C901.399 303.449 902.299 308.562 902.346 314.102C902.299 323.667 899.907 331.763 895.173 338.392C890.438 345.021 883.667 350.063 874.86 353.52C866.101 356.976 855.566 358.705 843.255 358.705C830.613 358.705 819.581 356.834 810.158 353.094C800.783 349.353 793.492 343.6 788.283 335.835C783.122 328.023 780.518 318.032 780.471 305.864H817.971C818.208 310.314 819.32 314.055 821.309 317.085C823.298 320.116 826.091 322.412 829.69 323.974C833.335 325.537 837.668 326.318 842.687 326.318C846.901 326.318 850.428 325.797 853.269 324.756C856.11 323.714 858.264 322.27 859.732 320.423C861.2 318.577 861.958 316.47 862.005 314.102C861.958 311.877 861.224 309.936 859.803 308.278C858.43 306.574 856.157 305.059 852.985 303.733C849.813 302.36 845.528 301.081 840.13 299.898L825.641 296.773C812.763 293.979 802.606 289.315 795.173 282.781C787.786 276.2 784.117 267.227 784.164 255.864C784.117 246.631 786.579 238.558 791.55 231.645C796.569 224.685 803.506 219.263 812.36 215.381C821.262 211.498 831.465 209.557 842.971 209.557C854.713 209.557 864.87 211.522 873.44 215.452C882.01 219.382 888.615 224.921 893.255 232.071C897.942 239.173 900.31 247.483 900.357 257H862.573ZM917.367 357V211.545H956.856V268.364H1009.13V211.545H1048.62V357H1009.13V300.182H956.856V357H917.367ZM1100.32 211.545V228.591C1100.32 233.231 1099.37 237.871 1097.48 242.511C1095.63 247.104 1093.27 251.389 1090.38 255.366C1087.54 259.296 1084.6 262.587 1081.57 265.239L1065.38 257C1067.37 253.591 1069.14 249.637 1070.71 245.139C1072.27 240.641 1073.05 235.125 1073.05 228.591V211.545H1100.32ZM1197.14 257C1196.76 252.265 1194.99 248.572 1191.82 245.92C1188.69 243.269 1183.93 241.943 1177.54 241.943C1173.47 241.943 1170.13 242.44 1167.53 243.435C1164.97 244.382 1163.08 245.684 1161.85 247.341C1160.61 248.998 1159.97 250.892 1159.93 253.023C1159.83 254.775 1160.14 256.361 1160.85 257.781C1161.61 259.154 1162.79 260.409 1164.4 261.545C1166.01 262.634 1168.07 263.629 1170.58 264.528C1173.09 265.428 1176.07 266.233 1179.53 266.943L1191.46 269.5C1199.51 271.205 1206.4 273.454 1212.13 276.247C1217.86 279.041 1222.55 282.331 1226.19 286.119C1229.84 289.86 1232.51 294.074 1234.22 298.761C1235.97 303.449 1236.87 308.562 1236.92 314.102C1236.87 323.667 1234.48 331.763 1229.74 338.392C1225.01 345.021 1218.24 350.063 1209.43 353.52C1200.67 356.976 1190.14 358.705 1177.83 358.705C1165.18 358.705 1154.15 356.834 1144.73 353.094C1135.35 349.353 1128.06 343.6 1122.85 335.835C1117.69 328.023 1115.09 318.032 1115.04 305.864H1152.54C1152.78 310.314 1153.89 314.055 1155.88 317.085C1157.87 320.116 1160.66 322.412 1164.26 323.974C1167.91 325.537 1172.24 326.318 1177.26 326.318C1181.47 326.318 1185 325.797 1187.84 324.756C1190.68 323.714 1192.83 322.27 1194.3 320.423C1195.77 318.577 1196.53 316.47 1196.58 314.102C1196.53 311.877 1195.79 309.936 1194.37 308.278C1193 306.574 1190.73 305.059 1187.56 303.733C1184.38 302.36 1180.1 301.081 1174.7 299.898L1160.21 296.773C1147.33 293.979 1137.18 289.315 1129.74 282.781C1122.36 276.2 1118.69 267.227 1118.73 255.864C1118.69 246.631 1121.15 238.558 1126.12 231.645C1131.14 224.685 1138.08 219.263 1146.93 215.381C1155.83 211.498 1166.04 209.557 1177.54 209.557C1189.28 209.557 1199.44 211.522 1208.01 215.452C1216.58 219.382 1223.19 224.921 1227.83 232.071C1232.51 239.173 1234.88 247.483 1234.93 257H1197.14ZM1291.78 357V211.545H1354.57C1365.36 211.545 1374.81 213.676 1382.9 217.938C1391 222.199 1397.3 228.188 1401.8 235.906C1406.29 243.624 1408.54 252.644 1408.54 262.966C1408.54 273.383 1406.22 282.402 1401.58 290.026C1396.99 297.649 1390.53 303.52 1382.19 307.639C1373.91 311.759 1364.22 313.818 1353.14 313.818H1315.64V283.136H1345.19C1349.83 283.136 1353.78 282.331 1357.05 280.722C1360.37 279.064 1362.9 276.721 1364.65 273.69C1366.45 270.66 1367.35 267.085 1367.35 262.966C1367.35 258.799 1366.45 255.248 1364.65 252.312C1362.9 249.33 1360.37 247.057 1357.05 245.494C1353.78 243.884 1349.83 243.08 1345.19 243.08H1331.27V357H1291.78ZM1563.94 284.273C1563.94 300.466 1560.79 314.126 1554.49 325.253C1548.2 336.332 1539.7 344.737 1529 350.466C1518.3 356.148 1506.36 358.989 1493.2 358.989C1479.94 358.989 1467.96 356.124 1457.26 350.395C1446.61 344.618 1438.14 336.19 1431.84 325.111C1425.59 313.984 1422.46 300.371 1422.46 284.273C1422.46 268.08 1425.59 254.443 1431.84 243.364C1438.14 232.237 1446.61 223.832 1457.26 218.151C1467.96 212.421 1479.94 209.557 1493.2 209.557C1506.36 209.557 1518.3 212.421 1529 218.151C1539.7 223.832 1548.2 232.237 1554.49 243.364C1560.79 254.443 1563.94 268.08 1563.94 284.273ZM1523.32 284.273C1523.32 275.561 1522.16 268.222 1519.84 262.256C1517.56 256.242 1514.18 251.697 1509.68 248.619C1505.23 245.494 1499.74 243.932 1493.2 243.932C1486.67 243.932 1481.15 245.494 1476.65 248.619C1472.2 251.697 1468.82 256.242 1466.5 262.256C1464.22 268.222 1463.09 275.561 1463.09 284.273C1463.09 292.985 1464.22 300.348 1466.5 306.361C1468.82 312.327 1472.2 316.872 1476.65 319.997C1481.15 323.075 1486.67 324.614 1493.2 324.614C1499.74 324.614 1505.23 323.075 1509.68 319.997C1514.18 316.872 1517.56 312.327 1519.84 306.361C1522.16 300.348 1523.32 292.985 1523.32 284.273ZM1582.21 357V211.545H1645C1655.79 211.545 1665.24 213.51 1673.33 217.44C1681.43 221.37 1687.73 227.028 1692.23 234.415C1696.72 241.801 1698.97 250.655 1698.97 260.977C1698.97 271.394 1696.65 280.177 1692.01 287.327C1687.42 294.476 1680.96 299.874 1672.62 303.52C1664.34 307.166 1654.65 308.989 1643.57 308.989H1606.07V278.307H1635.62C1640.26 278.307 1644.21 277.739 1647.48 276.602C1650.8 275.419 1653.33 273.548 1655.08 270.991C1656.88 268.435 1657.78 265.097 1657.78 260.977C1657.78 256.811 1656.88 253.425 1655.08 250.821C1653.33 248.17 1650.8 246.228 1647.48 244.997C1644.21 243.719 1640.26 243.08 1635.62 243.08H1621.7V357H1582.21ZM1667.44 290.239L1703.8 357H1660.9L1625.39 290.239H1667.44ZM1711.83 243.364V211.545H1838.25V243.364H1794.5V357H1755.58V243.364H1711.83ZM1853.11 357V211.545H1955.38V243.364H1892.6V268.364H1949.13V300.182H1892.6V357H1853.11ZM2110.82 284.273C2110.82 300.466 2107.67 314.126 2101.37 325.253C2095.07 336.332 2086.57 344.737 2075.87 350.466C2065.17 356.148 2053.24 358.989 2040.08 358.989C2026.82 358.989 2014.84 356.124 2004.14 350.395C1993.49 344.618 1985.01 336.19 1978.71 325.111C1972.46 313.984 1969.34 300.371 1969.34 284.273C1969.34 268.08 1972.46 254.443 1978.71 243.364C1985.01 232.237 1993.49 223.832 2004.14 218.151C2014.84 212.421 2026.82 209.557 2040.08 209.557C2053.24 209.557 2065.17 212.421 2075.87 218.151C2086.57 223.832 2095.07 232.237 2101.37 243.364C2107.67 254.443 2110.82 268.08 2110.82 284.273ZM2070.19 284.273C2070.19 275.561 2069.03 268.222 2066.71 262.256C2064.44 256.242 2061.05 251.697 2056.55 248.619C2052.1 245.494 2046.61 243.932 2040.08 243.932C2033.54 243.932 2028.03 245.494 2023.53 248.619C2019.08 251.697 2015.69 256.242 2013.37 262.256C2011.1 268.222 2009.96 275.561 2009.96 284.273C2009.96 292.985 2011.1 300.348 2013.37 306.361C2015.69 312.327 2019.08 316.872 2023.53 319.997C2028.03 323.075 2033.54 324.614 2040.08 324.614C2046.61 324.614 2052.1 323.075 2056.55 319.997C2061.05 316.872 2064.44 312.327 2066.71 306.361C2069.03 300.348 2070.19 292.985 2070.19 284.273ZM2129.09 357V211.545H2168.57V325.182H2227.38V357H2129.09ZM2282.83 211.545V357H2243.34V211.545H2282.83ZM2442.46 284.273C2442.46 300.466 2439.31 314.126 2433.01 325.253C2426.71 336.332 2418.21 344.737 2407.51 350.466C2396.81 356.148 2384.88 358.989 2371.72 358.989C2358.46 358.989 2346.48 356.124 2335.78 350.395C2325.13 344.618 2316.65 336.19 2310.35 325.111C2304.1 313.984 2300.98 300.371 2300.98 284.273C2300.98 268.08 2304.1 254.443 2310.35 243.364C2316.65 232.237 2325.13 223.832 2335.78 218.151C2346.48 212.421 2358.46 209.557 2371.72 209.557C2384.88 209.557 2396.81 212.421 2407.51 218.151C2418.21 223.832 2426.71 232.237 2433.01 243.364C2439.31 254.443 2442.46 268.08 2442.46 284.273ZM2401.83 284.273C2401.83 275.561 2400.67 268.222 2398.35 262.256C2396.08 256.242 2392.69 251.697 2388.19 248.619C2383.74 245.494 2378.25 243.932 2371.72 243.932C2365.18 243.932 2359.67 245.494 2355.17 248.619C2350.72 251.697 2347.33 256.242 2345.01 262.256C2342.74 268.222 2341.6 275.561 2341.6 284.273C2341.6 292.985 2342.74 300.348 2345.01 306.361C2347.33 312.327 2350.72 316.872 2355.17 319.997C2359.67 323.075 2365.18 324.614 2371.72 324.614C2378.25 324.614 2383.74 323.075 2388.19 319.997C2392.69 316.872 2396.08 312.327 2398.35 306.361C2400.67 300.348 2401.83 292.985 2401.83 284.273Z" fill="black"/>
<defs>
<filter id="filter0_d_8_7" x="0" y="0.0166931" width="322.997" height="537.199" filterUnits="userSpaceOnUse" color-interpolation-filters="sRGB">
<feFlood flood-opacity="0" result="BackgroundImageFix"/>
<feColorMatrix in="SourceAlpha" type="matrix" values="0 0 0 0 0 0 0 0 0 0 0 0 0 0 0 0 0 0 127 0" result="hardAlpha"/>
<feOffset dx="12" dy="14"/>
<feGaussianBlur stdDeviation="9"/>
<feComposite in2="hardAlpha" operator="out"/>
<feColorMatrix type="matrix" values="0 0 0 0 1 0 0 0 0 1 0 0 0 0 1 0 0 0 0.26 0"/>
<feBlend mode="normal" in2="BackgroundImageFix" result="effect1_dropShadow_8_7"/>
<feBlend mode="normal" in="SourceGraphic" in2="effect1_dropShadow_8_7" result="shape"/>
</filter>
</defs>
</svg>
